<?xml version="1.0" encoding="utf-8"?>
<!-- Generator: Adobe Illustrator 16.0.0, SVG Export Plug-In . SVG Version: 6.00 Build 0)  -->
<!DOCTYPE svg PUBLIC "-//W3C//DTD SVG 1.1//EN" "http://www.w3.org/Graphics/SVG/1.1/DTD/svg11.dtd">
<svg version="1.1" id="Layer_1" xmlns="http://www.w3.org/2000/svg" xmlns:xlink="http://www.w3.org/1999/xlink" x="0px" y="0px"
	 width="560px" height="201.124px" viewBox="0 0 560 201.124" enable-background="new 0 0 560 201.124" xml:space="preserve">
<g>
	<path fill="#C0392B" d="M86.027,197.083c-0.66-10.562-37.723-19.71-37.723-19.71c-13.014-2.83-21.502-5.281-21.502-5.281
		c-36.686-17.636-16.976-62.055-16.976-62.055C27.179,78.726,7.751,33.27,7.751,33.27C23.218,32.232,33.12,16.011,33.12,16.011
		C63.11,23.368,86.027,3.657,86.027,3.657s22.917,19.71,52.907,12.354c0,0,9.902,16.221,25.369,17.259
		c0,0-19.428,45.456-2.075,76.86c0,0,19.71,44.419-16.881,62.055c0,0-8.488,2.452-21.502,5.281
		C123.656,177.373,86.687,186.52,86.027,197.083z"/>
	<path fill="#FFFFFF" fill-opacity="0.3" d="M149.308,116.167c-13.392-25.181-8.11-56.208-3.018-74.032
		c-5.658-3.111-10.091-7.262-13.392-10.845c-2.546,0.282-5.092,0.377-7.639,0.377c-16.881,0-30.745-6.13-39.232-11.034v155.985
		c4.433-2.641,9.336-4.81,14.052-6.602c10.091-3.866,19.899-6.318,20.276-6.413l0.377-0.094c9.619-2.075,16.692-3.961,19.333-4.716
		c9.148-4.716,13.297-12.166,13.203-23.389C153.174,126.257,150.062,117.958,149.308,116.167z"/>
	<path fill="none" d="M79.803,124.842c0.283,0,0.566,0,0.849,0h5.847v-18.39l-0.566-1.697L79.803,124.842z"/>
	<polygon fill="none" points="92.062,124.842 86.404,106.453 86.404,124.842 	"/>
	<path fill="none" stroke="#000000" stroke-width="16" stroke-miterlimit="10" d="M169.207,89.383"/>
	<path fill="none" stroke="#000000" stroke-width="16" stroke-miterlimit="10" d="M142.423,86.271"/>
	<path fill="#C0392B" d="M78.86,117.77c2.735,0,5.564,0.094,8.299,0.094c2.075,0,4.149,0,6.224,0l-7.356-23.859L78.86,117.77z"/>
	<path fill="none" d="M86.027,117.77V94.381l-7.073,23.294C81.217,117.77,83.575,117.77,86.027,117.77z"/>
	<path fill="none" d="M87.253,117.77c2.075,0,4.149,0,6.225,0l-7.356-23.86l-0.094,0.472v23.389
		C86.404,117.77,86.782,117.77,87.253,117.77z"/>
	<g>
		<path fill="#FFFFFF" d="M78.86,117.77l7.073-23.295V76.557H74.993l-15.373,40.835c-18.673-0.754-36.214-2.263-50.832-4.338H8.695
			c-1.132,3.206-2.924,8.865-3.772,15.655c14.146,2.169,30.744,3.678,48.663,4.526l-4.055,10.939h21.313l3.018-10.279
			c3.961,0.095,8.016,0.095,12.071,0.095v-16.032C83.575,117.77,81.217,117.77,78.86,117.77z"/>
		<path opacity="0.3" fill="#C0392B" enable-background="new    " d="M78.86,117.77l7.073-23.295V76.557H74.993l-15.373,40.835
			c-18.673-0.754-36.214-2.263-50.832-4.338H8.695c-1.132,3.206-2.924,8.865-3.772,15.655c14.146,2.169,30.744,3.678,48.663,4.526
			l-4.055,10.939h21.313l3.018-10.279c3.961,0.095,8.016,0.095,12.071,0.095v-16.032C83.575,117.77,81.217,117.77,78.86,117.77z"/>
	</g>
	<path fill="#FFFFFF" d="M167.038,128.898c-0.754-6.696-2.452-12.354-3.678-15.655c-14.618,2.075-31.876,3.396-50.172,4.149
		L97.815,76.557H86.027v17.918l0.095-0.471l7.356,23.859c-2.075,0-4.15,0-6.225,0c-0.377,0-0.849,0-1.226,0v16.032
		c0.377,0,0.849,0,1.226,0c3.678,0,7.356,0,10.94-0.094l3.112,10.185h21.88l-4.056-10.845
		C136.576,132.387,152.891,130.878,167.038,128.898z"/>
	<g>
		<path fill="#FFFFFF" d="M74.71,55.055c0,6.318,4.999,11.505,11.223,11.788V43.361C79.708,43.644,74.71,48.736,74.71,55.055z"/>
		<path opacity="0.3" fill="#C0392B" enable-background="new    " d="M74.71,55.055c0,6.318,4.999,11.505,11.223,11.788V43.361
			C79.708,43.644,74.71,48.736,74.71,55.055z"/>
	</g>
	<path fill="#FFFFFF" d="M98.287,55.055c0-6.508-5.281-11.789-11.789-11.789c-0.188,0-0.377,0-0.566,0V66.75
		c0.189,0,0.377,0,0.566,0C93.006,66.843,98.287,61.562,98.287,55.055z"/>
</g>
<g>
	<path fill="#FFFFFF" d="M220.51,73.54h31.31c5.187,0,9.242,1.32,11.977,3.866c2.829,2.546,4.149,5.753,4.149,9.619
		c0,3.207-1.037,5.941-3.018,8.205c-1.32,1.509-3.301,2.735-5.847,3.584c3.867,0.942,6.696,2.546,8.582,4.81
		c1.792,2.264,2.735,5.093,2.735,8.582c0,2.829-0.66,5.281-1.98,7.544c-1.32,2.264-3.112,3.961-5.375,5.281
		c-1.415,0.85-3.489,1.415-6.319,1.792c-3.772,0.472-6.224,0.755-7.45,0.755H220.51V73.54z M237.391,94.665h7.262
		c2.641,0,4.433-0.472,5.47-1.32c1.038-0.943,1.509-2.17,1.509-3.867c0-1.604-0.472-2.829-1.509-3.678
		c-1.037-0.849-2.829-1.32-5.281-1.32h-7.356v10.186H237.391z M237.391,115.978h8.488c2.829,0,4.904-0.472,6.13-1.509
		c1.226-1.038,1.792-2.358,1.792-4.15c0-1.603-0.566-2.923-1.792-3.866c-1.132-0.943-3.207-1.415-6.13-1.415h-8.488V115.978z"/>
	<path fill="#FFFFFF" d="M307.462,118.619h-18.956l-2.641,8.959h-17.069l20.275-54.038h18.202l20.276,54.038h-17.447
		L307.462,118.619z M303.973,106.924l-5.941-19.428l-5.941,19.428H303.973z"/>
	<path fill="#FFFFFF" d="M324.154,73.54h15.844l5.753,30.272l8.394-30.272h15.844l8.394,30.178l5.752-30.178h15.75l-11.883,54.038
		h-16.41l-9.524-34.045l-9.431,34.045h-16.41L324.154,73.54z"/>
	<path fill="#FFFFFF" d="M434.684,118.619h-18.956l-2.641,8.959h-17.07l20.276-54.038h18.296l20.276,54.038h-17.447L434.684,118.619
		z M431.288,106.924l-6.036-19.428l-5.941,19.428H431.288z"/>
	<path fill="#FFFFFF" d="M456.657,127.578V73.54h27.82c5.188,0,9.148,0.471,11.883,1.32c2.735,0.849,4.904,2.546,6.602,4.903
		c1.697,2.358,2.547,5.281,2.547,8.771c0,3.019-0.66,5.564-1.887,7.733c-1.32,2.169-3.018,3.961-5.281,5.281
		c-1.414,0.849-3.395,1.604-5.847,2.169c1.98,0.66,3.395,1.32,4.338,1.98c0.66,0.472,1.509,1.415,2.641,2.83
		c1.132,1.414,1.98,2.546,2.357,3.395l8.11,15.655h-18.861l-8.959-16.504c-1.132-2.169-2.169-3.489-3.018-4.149
		c-1.227-0.849-2.547-1.227-4.056-1.227h-1.509v21.974h-16.881V127.578z M473.443,95.418h7.073c0.755,0,2.264-0.283,4.433-0.754
		c1.132-0.189,1.98-0.755,2.735-1.698c0.66-0.942,1.037-1.98,1.037-3.112c0-1.791-0.566-3.111-1.697-4.055
		c-1.132-0.943-3.207-1.415-6.225-1.415h-7.356V95.418L473.443,95.418z"/>
	<path fill="#FFFFFF" d="M511.355,73.54h44.796v11.505h-28.009v8.582h26.028v11.034h-26.028v10.657H557v12.26h-45.55V73.54H511.355z
		"/>
</g>
</svg>
